<svg id="Layer_1" data-name="Layer 1" xmlns="http://www.w3.org/2000/svg" viewBox="0 0 700 700"><defs><style>.cls-1{stroke:#000;}.cls-1,.cls-3{stroke-miterlimit:10;}.cls-2{fill:#fff;}.cls-3{fill:#d40000;stroke:#d40000;}</style></defs><title>HarrtionBlade</title><rect class="cls-1" x="308.97" y="532.43" width="27" height="38"/><path class="cls-2" d="M427.49,155.37c0-.24,0-0.48,0-0.72,0-1.52,0-8.42-3.51-10.2a8.36,8.36,0,0,0-6.75-.32,10.49,10.49,0,0,1-1.88.54L255.51,173.5a10.58,10.58,0,0,0-7.8,6.14l185.77,111.3Z"/><path class="cls-3" d="M436.47,397.94l-3-107L247.7,179.64,247.09,181a10.58,10.58,0,0,0-.85,5.3l10.7,109.57c0,0.2,0,.39.07,0.59,0.93,6,16.21,103.84,44.12,230.67a10.62,10.62,0,0,0,10.34,8.35h22.68a10.61,10.61,0,0,0,8-3.68s20.42-21.14,25.54-26.31,28.21-23.67,57.59-39.09a17.15,17.15,0,0,0,2.51-1.43c2.26-1.72,6.85-5.62,8.7-10.06C439,448.94,436.47,397.94,436.47,397.94Z"/></svg>