<svg id="Layer_1" data-name="Layer 1" xmlns="http://www.w3.org/2000/svg" viewBox="0 0 247.12 230.5"><defs><style>.cls-1{fill:#fff;}</style></defs><title>icons</title><path class="cls-1" d="M104.24,161.13c-1.6,4-3,7.76-4.66,11.44A4.8,4.8,0,0,1,97.21,175c-9.76,3.42-18.93,2.3-25.62-7.33a45.41,45.41,0,0,0-10.09-9.84c-2.82-2.13-6.48-2.61-10.92-.49,1.57,1.73,2.61,3.48,4.15,4.46a24.22,24.22,0,0,1,10.11,12.55c3.55,10.17,11.18,13.93,21,14.54,4.18,0.26,8.4,0,13,0,0,5.81.23,12.07-.09,18.3-0.18,3.47-3.49,4.74-7.64,3.32a93.68,93.68,0,0,1-31.77-18.18c-36-31.47-44.62-81.81-21.27-123.56C56.78,35.44,95.52,15.6,133.52,19.94c43.51,5,77.14,35.29,86.38,77.85,10.28,47.39-17.72,96.92-63.7,112.65-5.46,1.87-8.15,0-8.19-5.67,0-7.38-.08-14.76,0-22.13,0.09-7.63-.57-15-6.08-21.1,5.19-1.23,10.17-2.06,14.93-3.6,17.75-5.72,27.27-18.1,29-36.68,1.14-12.24-.3-23.66-8.36-33.59a5.14,5.14,0,0,1-.49-4.09c2.12-7,1.16-13.72-.74-20.55-0.87-3.11-2.67-4.24-5.39-3.17C164.2,62.5,157.67,65.53,151,68.2c-1.85.74-4.12,1.44-6,1a91.8,91.8,0,0,0-42.6.11c-2.67.66-4.5-.13-6.81-1.23-6.37-3-13-5.57-19.52-8.15-2.81-1.1-4.56,0-5.41,3.06-1.88,6.82-2.78,13.56-.78,20.57A6.91,6.91,0,0,1,68.53,89C55,105,60.63,138,73.37,148.74A52.49,52.49,0,0,0,100,160.39C101.56,160.63,103.12,160.93,104.24,161.13Z"/></svg>