<svg id="Layer_1" data-name="Layer 1" xmlns="http://www.w3.org/2000/svg" viewBox="0 0 700 700"><defs><style>.cls-1{stroke:#000;stroke-miterlimit:10;stroke-width:2px;}.cls-2{fill:#fff;}</style></defs><title>OarBlade</title><rect class="cls-1" x="308.97" y="532.43" width="27" height="38"/><path class="cls-2" d="M342.14,531.79a10.58,10.58,0,0,1-8,3.65H311.47a10.59,10.59,0,0,1-10.34-8.31C273.22,400.29,257.95,302.49,257,296.48c0-.2-0.05-0.39-0.07-0.59l-10.7-109.57a10.58,10.58,0,0,1,.85-5.3l0.61-1.38a10.58,10.58,0,0,1,7.8-6.14l159.84-28.83a10.49,10.49,0,0,0,1.88-.54,8.36,8.36,0,0,1,6.75.32c3.55,1.78,3.56,8.68,3.51,10.2,0,0.24,0,.48,0,0.72l6,135.57,3,107s2.5,51,0,57c-1.85,4.44-6.43,8.33-8.7,10.05a17.12,17.12,0,0,1-2.51,1.43c-29.38,15.42-52.47,33.92-57.59,39.08S342.14,531.79,342.14,531.79Z"/></svg>