<svg id="Layer_1" data-name="Layer 1" xmlns="http://www.w3.org/2000/svg" viewBox="0 0 700 700"><defs><style>.cls-1{fill:#f4c5ae;}.cls-2{fill:#f4d0bd;}.cls-3{fill:#333;}.cls-4{fill:#eca043;}.cls-5{fill:#f6ae60;}.cls-6{fill:#cfd0d3;}.cls-7{fill:#ebe8e7;}.cls-8{fill:#f87b88;}.cls-9{fill:#f65a6a;}</style></defs><title>Pencil</title><polygon class="cls-1" points="303.45 510.83 350 599.14 350 510.83 303.45 510.83"/><polygon class="cls-2" points="350 510.83 350 599.14 396.55 510.83 350 510.83"/><polygon points="339.84 580.31 350 599.14 350 580.31 339.84 580.31"/><polygon class="cls-3" points="350 580.31 350 599.14 360.16 580.31 350 580.31"/><rect class="cls-4" x="303.45" y="201.29" width="46.55" height="309.54"/><rect class="cls-5" x="350" y="201.29" width="46.55" height="309.54"/><rect class="cls-6" x="303.45" y="146.26" width="46.55" height="55.03"/><rect class="cls-7" x="350" y="146.26" width="46.55" height="55.03"/><rect class="cls-8" x="350" y="100.86" width="46.55" height="45.4"/><rect class="cls-9" x="303.45" y="100.86" width="46.55" height="45.4"/><polygon class="cls-1" points="304.01 511.48 327.85 493.77 350 511.05 304.01 511.48"/><polygon class="cls-2" points="350.28 511.48 374.12 493.77 396.27 511.05 350.28 511.48"/></svg>